<?xml version="1.0" encoding="utf-8"?>
<!-- Generator: Adobe Illustrator 28.1.0, SVG Export Plug-In . SVG Version: 6.00 Build 0)  -->
<svg version="1.1" xmlns="http://www.w3.org/2000/svg" xmlns:xlink="http://www.w3.org/1999/xlink" x="0px" y="0px"
	 viewBox="0 0 800 1000" style="enable-background:new 0 0 800 1000;" xml:space="preserve">
<style type="text/css">
	.st0{fill:#823190;}
	.st1{fill:#FFFFFF;}
	.st2{fill:#FF5757;}
	.st3{fill:#D80000;}
	.st4{fill:#31D37A;}
	.st5{fill:#009548;}
	.st6{fill:#4E92DD;}
	.st7{fill:#00357C;}
	.st8{fill:#FFFB64;}
	.st9{fill:#EFE800;}
	.st10{fill:#FFB133;}
	.st11{fill:#E07000;}
	.st12{fill:#00A956;}
	.st13{fill:#007CEB;}
	.st14{fill:none;stroke:#4E92DD;stroke-width:10;stroke-miterlimit:10;}
	.st15{fill:none;stroke:#009548;stroke-width:10;stroke-miterlimit:10;}
	.st16{fill:none;stroke:#D80000;stroke-width:10;stroke-miterlimit:10;}
	.st17{fill:#B358C6;}
	.st18{fill:#383838;}
	.st19{font-family:'VarelaRound-Regular';}
	.st20{font-size:20.3963px;}
</style>
<g id="TX2-FS1-RX1">
</g>
<g id="TX1-FS1-RX1">
</g>
<g id="TX2-RX1">
	<g id="RX1">
		<polygon class="st0" points="605.87,629.35 605.87,509.91 604.47,509.91 592.59,509.91 0,509.91 0,510.46 0,547.41 0,1000 
			5.02,1000 70.87,1000 605.94,1000 605.94,977.22 626.63,956.52 626.63,650.11 		"/>
		<g>
			<rect x="138.37" y="512.54" width="248.31" height="23.98"/>
			<rect x="396.71" y="512.54" width="204.84" height="23.98"/>
		</g>
		<g>
			<rect x="228.25" y="974.14" width="198.45" height="23.98"/>
			<rect x="446.46" y="974.14" width="149.66" height="23.98"/>
		</g>
		<g>
			<text transform="matrix(1 0 0 1 45.9658 981.9985)" class="st1 st19 st20">DMX-RX1</text>
			<path id="Open_Gear_00000005949802033898963770000013311046923983720877_" class="st1" d="M25.83,971.13
				c-1.83-0.04-3.77,1.41-3.81,3.79c-0.02,1.48,0.72,2.61,1.96,3.39c0.33,0.21,0.37,0.39,0.22,0.74c-0.74,1.74-1.45,3.49-2.18,5.24
				c-0.16,0.39-0.21,0.4-0.6,0.2c-1.27-0.64-0.79-0.67-1.98,0.12c-0.54,0.36-1.07,0.73-1.6,1.1c-0.25,0.18-0.44,0.17-0.66-0.06
				c-0.68-0.7-1.37-1.39-2.07-2.08c-0.22-0.21-0.23-0.39-0.06-0.63c0.52-0.74,1.02-1.49,1.54-2.23c0.18-0.25,0.24-0.48,0.11-0.78
				c-0.31-0.73-0.59-1.47-0.9-2.2c-0.06-0.13-0.23-0.27-0.37-0.3c-0.94-0.2-1.89-0.39-2.84-0.55c-0.31-0.05-0.45-0.16-0.44-0.49
				c0.01-1,0.01-2,0-3.01c0-0.26,0.09-0.38,0.34-0.42c0.94-0.17,1.87-0.36,2.81-0.52c0.34-0.06,0.55-0.19,0.68-0.51
				c0.25-0.64,0.52-1.26,0.8-1.89c0.12-0.27,0.11-0.5-0.07-0.75c-0.55-0.78-1.07-1.58-1.62-2.35c-0.2-0.28-0.2-0.47,0.05-0.72
				c0.7-0.68,1.39-1.37,2.07-2.07c0.21-0.22,0.38-0.2,0.6-0.04c0.82,0.57,1.65,1.13,2.47,1.71c0.25,0.17,0.46,0.2,0.74,0.07
				c0.61-0.28,1.24-0.51,1.86-0.77c0.23-0.09,0.38-0.22,0.42-0.49c0.17-0.97,0.38-1.94,0.54-2.92c0.06-0.37,0.19-0.53,0.58-0.52
				c0.95,0.03,1.91,0.02,2.86,0c0.33-0.01,0.45,0.13,0.5,0.43c0.17,1,0.38,1.99,0.55,2.99c0.05,0.29,0.21,0.42,0.45,0.51
				c0.62,0.25,1.25,0.49,1.86,0.77c0.28,0.13,0.48,0.08,0.71-0.08c0.82-0.57,1.65-1.13,2.47-1.71c0.25-0.18,0.42-0.16,0.63,0.05
				c0.68,0.7,1.37,1.39,2.07,2.07c0.23,0.22,0.24,0.4,0.06,0.66c-0.56,0.79-1.09,1.59-1.64,2.38c-0.17,0.25-0.2,0.48-0.07,0.75
				c0.28,0.63,0.55,1.28,0.82,1.92c0.12,0.29,0.31,0.43,0.62,0.48c0.92,0.15,1.83,0.33,2.74,0.49c0.33,0.06,0.47,0.19,0.46,0.55
				c-0.03,0.96-0.02,1.93,0,2.9c0,0.32-0.11,0.44-0.43,0.49c-0.96,0.16-1.92,0.35-2.88,0.56c-0.13,0.03-0.28,0.16-0.34,0.29
				c-0.32,0.74-0.6,1.5-0.91,2.24c-0.12,0.27-0.06,0.48,0.09,0.71c0.51,0.73,1,1.48,1.52,2.2c0.21,0.29,0.22,0.49-0.05,0.75
				c-0.67,0.64-1.33,1.29-1.97,1.97c-0.28,0.3-0.5,0.28-0.81,0.06c-0.68-0.49-1.39-0.95-2.07-1.44c-0.27-0.19-0.51-0.25-0.8-0.05
				c-0.21,0.14-0.45,0.24-0.67,0.37c-0.26,0.15-0.42,0.1-0.53-0.19c-0.56-1.39-1.14-2.78-1.72-4.16c-0.16-0.39-0.31-0.8-0.49-1.18
				c-0.14-0.28-0.11-0.45,0.17-0.63c0.82-0.52,1.48-1.19,1.81-2.14C30.31,973.71,28.49,971.13,25.83,971.13z"/>
		</g>
		<g>
			<g>
				<rect x="527.66" y="883.02" class="st1" width="68.1" height="11.59"/>
				<rect x="527.66" y="931.68" class="st1" width="68.1" height="11.59"/>
				<rect x="527.66" y="907.35" class="st1" width="68.1" height="11.59"/>
			</g>
			<rect x="513.41" y="873.12" width="21.07" height="80.05"/>
		</g>
		<g id="Red_Off_00000018231291947940296990000003828172931238370475_">
			
				<ellipse transform="matrix(0.7071 -0.7071 0.7071 0.7071 -319.9156 622.025)" class="st2" cx="590.89" cy="697.18" rx="28.36" ry="28.36"/>
			<circle class="st3" cx="590.89" cy="697.18" r="23.17"/>
		</g>
		<g>
			
				<ellipse transform="matrix(0.7071 -0.7071 0.7071 0.7071 -405.0308 657.2808)" class="st4" cx="590.89" cy="817.56" rx="28.36" ry="28.36"/>
			<circle class="st5" cx="590.89" cy="817.56" r="23.17"/>
		</g>
		<g id="Red_Off_00000042009300526335585240000015686283900100789414_">
			
				<ellipse transform="matrix(0.7071 -0.7071 0.7071 0.7071 -426.0744 526.149)" class="st2" cx="422.08" cy="777.39" rx="28.36" ry="28.36"/>
			<circle class="st3" cx="422.08" cy="777.39" r="23.17"/>
		</g>
		<g>
			
				<ellipse transform="matrix(0.7071 -0.7071 0.7071 0.7071 -445.4787 479.3029)" class="st4" cx="355.83" cy="777.39" rx="28.36" ry="28.36"/>
			<circle class="st5" cx="355.83" cy="777.39" r="23.17"/>
		</g>
		<g>
			
				<ellipse transform="matrix(0.7071 -0.7071 0.7071 0.7071 -285.8939 468.0844)" class="st4" cx="422.08" cy="579.15" rx="28.36" ry="28.36"/>
			<circle class="st5" cx="422.08" cy="579.15" r="23.17"/>
		</g>
		<g>
			
				<ellipse transform="matrix(0.7071 -0.7071 0.7071 0.7071 -305.2982 421.2383)" class="st6" cx="355.83" cy="579.15" rx="28.36" ry="28.36"/>
			<circle class="st7" cx="355.83" cy="579.15" r="23.17"/>
		</g>
		<g>
			
				<ellipse transform="matrix(0.7071 -0.7071 0.7071 0.7071 -267.4496 512.6128)" class="st8" cx="485.05" cy="579.15" rx="28.36" ry="28.36"/>
			<circle class="st9" cx="485.05" cy="579.15" r="23.17"/>
		</g>
		<g>
			
				<ellipse transform="matrix(0.7071 -0.7071 0.7071 0.7071 -248.404 558.5931)" class="st10" cx="550.08" cy="579.15" rx="28.36" ry="28.36"/>
			<circle class="st11" cx="550.08" cy="579.15" r="23.17"/>
		</g>
	</g>
	<g id="TX2">
		<polygon class="st0" points="605.87,119.44 605.87,0 604.47,0 592.59,0 0,0 0,0.56 0,37.51 0,490.09 5.02,490.09 70.87,490.09 
			605.94,490.09 605.94,467.31 626.63,446.62 626.63,140.2 		"/>
		<g>
			<rect x="138.37" y="2.63" width="248.31" height="23.98"/>
			<rect x="396.71" y="2.63" width="204.84" height="23.98"/>
		</g>
		<g>
			<rect x="228.25" y="464.23" width="198.45" height="23.98"/>
			<rect x="446.46" y="464.23" width="149.66" height="23.98"/>
		</g>
		<g>
			<text transform="matrix(1 0 0 1 45.9658 472.0898)" class="st1 st19 st20">DMX-TX2</text>
			<path id="Open_Gear_00000098201020305265602670000012496596898419206797_" class="st1" d="M25.83,461.22
				c-1.83-0.04-3.77,1.41-3.81,3.79c-0.02,1.48,0.72,2.61,1.96,3.39c0.33,0.21,0.37,0.39,0.22,0.74c-0.74,1.74-1.45,3.49-2.18,5.24
				c-0.16,0.39-0.21,0.4-0.6,0.2c-1.27-0.64-0.79-0.67-1.98,0.12c-0.54,0.36-1.07,0.73-1.6,1.1c-0.25,0.18-0.44,0.17-0.66-0.06
				c-0.68-0.7-1.37-1.39-2.07-2.08c-0.22-0.21-0.23-0.39-0.06-0.63c0.52-0.74,1.02-1.49,1.54-2.23c0.18-0.25,0.24-0.48,0.11-0.78
				c-0.31-0.73-0.59-1.47-0.9-2.2c-0.06-0.13-0.23-0.27-0.37-0.3c-0.94-0.2-1.89-0.39-2.84-0.55c-0.31-0.05-0.45-0.16-0.44-0.49
				c0.01-1,0.01-2,0-3.01c0-0.26,0.09-0.38,0.34-0.42c0.94-0.17,1.87-0.36,2.81-0.52c0.34-0.06,0.55-0.19,0.68-0.51
				c0.25-0.64,0.52-1.26,0.8-1.89c0.12-0.27,0.11-0.5-0.07-0.75c-0.55-0.78-1.07-1.58-1.62-2.35c-0.2-0.28-0.2-0.47,0.05-0.72
				c0.7-0.68,1.39-1.37,2.07-2.07c0.21-0.22,0.38-0.2,0.6-0.04c0.82,0.57,1.65,1.13,2.47,1.71c0.25,0.17,0.46,0.2,0.74,0.07
				c0.61-0.28,1.24-0.51,1.86-0.77c0.23-0.09,0.38-0.22,0.42-0.49c0.17-0.97,0.38-1.94,0.54-2.92c0.06-0.37,0.19-0.53,0.58-0.52
				c0.95,0.03,1.91,0.02,2.86,0c0.33-0.01,0.45,0.13,0.5,0.43c0.17,1,0.38,1.99,0.55,2.99c0.05,0.29,0.21,0.42,0.45,0.51
				c0.62,0.25,1.25,0.49,1.86,0.77c0.28,0.13,0.48,0.08,0.71-0.08c0.82-0.57,1.65-1.13,2.47-1.71c0.25-0.18,0.42-0.16,0.63,0.05
				c0.68,0.7,1.37,1.39,2.07,2.07c0.23,0.22,0.24,0.4,0.06,0.66c-0.56,0.79-1.09,1.59-1.64,2.38c-0.17,0.25-0.2,0.48-0.07,0.75
				c0.28,0.63,0.55,1.28,0.82,1.92c0.12,0.29,0.31,0.43,0.62,0.48c0.92,0.15,1.83,0.33,2.74,0.49c0.33,0.06,0.47,0.19,0.46,0.55
				c-0.03,0.96-0.02,1.93,0,2.9c0,0.32-0.11,0.44-0.43,0.49c-0.96,0.16-1.92,0.35-2.88,0.56c-0.13,0.03-0.28,0.16-0.34,0.29
				c-0.32,0.74-0.6,1.5-0.91,2.24c-0.12,0.27-0.06,0.48,0.09,0.71c0.51,0.73,1,1.48,1.52,2.2c0.21,0.29,0.22,0.49-0.05,0.75
				c-0.67,0.64-1.33,1.29-1.97,1.97c-0.28,0.3-0.5,0.28-0.81,0.06c-0.68-0.49-1.39-0.95-2.07-1.44c-0.27-0.19-0.51-0.25-0.8-0.05
				c-0.21,0.14-0.45,0.24-0.67,0.37c-0.26,0.15-0.42,0.1-0.53-0.19c-0.56-1.39-1.14-2.78-1.72-4.16c-0.16-0.39-0.31-0.8-0.49-1.18
				c-0.14-0.28-0.11-0.45,0.17-0.63c0.82-0.52,1.48-1.19,1.81-2.14C30.31,463.8,28.49,461.22,25.83,461.22z"/>
		</g>
		<g>
			<g>
				<rect x="527.66" y="373.11" class="st1" width="68.1" height="11.59"/>
				<rect x="527.66" y="421.77" class="st1" width="68.1" height="11.59"/>
				<rect x="527.66" y="397.44" class="st1" width="68.1" height="11.59"/>
			</g>
			<rect x="513.41" y="363.21" width="21.07" height="80.05"/>
		</g>
		<g id="Red_Off_00000182492083897196737950000001497223982027309221_">
			
				<ellipse transform="matrix(0.7071 -0.7071 0.7071 0.7071 40.6437 472.6764)" class="st2" cx="590.89" cy="187.28" rx="28.36" ry="28.36"/>
			<circle class="st3" cx="590.89" cy="187.28" r="23.17"/>
		</g>
		<g>
			
				<ellipse transform="matrix(0.7071 -0.7071 0.7071 0.7071 -44.4715 507.9323)" class="st4" cx="590.89" cy="307.65" rx="28.36" ry="28.36"/>
			<circle class="st5" cx="590.89" cy="307.65" r="23.17"/>
		</g>
		<rect x="407.58" y="73.84" width="179.92" height="61.05"/>
		<rect x="39.54" y="2.63" width="85.37" height="242.42"/>
		<rect x="39.54" y="290.66" width="265.15" height="82.46"/>
		<g>
			
				<ellipse transform="matrix(0.7071 -0.7071 0.7071 0.7071 -25.9471 202.8159)" class="st3" cx="231.85" cy="132.73" rx="28.36" ry="28.36"/>
			<circle class="st2" cx="231.85" cy="132.73" r="23.17"/>
		</g>
	</g>
	<g>
		<polyline class="st14" points="588.92,427.56 685.47,427.56 685.47,937.47 588.92,937.47 		"/>
		<polyline class="st15" points="587.48,403.24 669.24,403.24 669.24,913.14 587.48,913.14 		"/>
		<polyline class="st16" points="584.37,379.34 652.89,379.34 652.89,888.82 584.37,888.82 		"/>
		<rect x="580.36" y="363.21" width="21.07" height="80.05"/>
		<rect x="580.36" y="873.12" width="21.07" height="80.05"/>
	</g>
</g>
<g id="TX1-RX1">
</g>
</svg>
