<?xml version="1.0" encoding="utf-8"?>
<!-- Generator: Adobe Illustrator 28.1.0, SVG Export Plug-In . SVG Version: 6.00 Build 0)  -->
<svg version="1.1" xmlns="http://www.w3.org/2000/svg" xmlns:xlink="http://www.w3.org/1999/xlink" x="0px" y="0px"
	 viewBox="0 0 800 1000" style="enable-background:new 0 0 800 1000;" xml:space="preserve">
<style type="text/css">
	.st0{fill:#823190;}
	.st1{fill:#FFFFFF;}
	.st2{fill:#FF5757;}
	.st3{fill:#D80000;}
	.st4{fill:#31D37A;}
	.st5{fill:#009548;}
	.st6{fill:#4E92DD;}
	.st7{fill:#00357C;}
	.st8{fill:#FFFB64;}
	.st9{fill:#EFE800;}
	.st10{fill:#FFB133;}
	.st11{fill:#E07000;}
	.st12{fill:#00A956;}
	.st13{fill:#007CEB;}
	.st14{fill:none;stroke:#4E92DD;stroke-width:10;stroke-miterlimit:10;}
	.st15{fill:none;stroke:#009548;stroke-width:10;stroke-miterlimit:10;}
	.st16{fill:none;stroke:#D80000;stroke-width:10;stroke-miterlimit:10;}
	.st17{font-family:'VarelaRound-Regular';}
	.st18{font-size:12.9286px;}
	.st19{fill:#B358C6;}
	.st20{fill:#383838;}
</style>
<g id="TX2-FS1-RX1">
</g>
<g id="TX1-FS1-RX1">
	<g>
		<g>
			<polygon class="st0" points="585.46,765.05 585.46,689.34 584.57,689.34 577.04,689.34 201.41,689.34 201.41,689.7 
				201.41,713.12 201.41,1000 204.59,1000 246.33,1000 585.5,1000 585.5,985.56 598.61,972.44 598.61,778.21 			"/>
			<rect x="289.12" y="691.01" width="157.4" height="15.2"/>
			<rect x="452.87" y="691.01" width="129.84" height="15.2"/>
			<rect x="346.09" y="983.61" width="125.79" height="15.2"/>
			<rect x="484.41" y="983.61" width="94.86" height="15.2"/>
			<text transform="matrix(1 0 0 1 230.5471 988.5898)" class="st1 st17 st18">DMX-RX1</text>
			<path id="Open_Gear_00000049182001054913045130000007952855916794442908_" class="st1" d="M217.78,981.7
				c-1.16-0.03-2.39,0.89-2.42,2.4c-0.01,0.94,0.46,1.65,1.25,2.15c0.21,0.13,0.23,0.24,0.14,0.47c-0.47,1.1-0.92,2.21-1.38,3.32
				c-0.1,0.25-0.13,0.25-0.38,0.13c-0.8-0.41-0.5-0.43-1.25,0.07c-0.34,0.23-0.68,0.46-1.01,0.7c-0.16,0.11-0.28,0.11-0.42-0.04
				c-0.43-0.45-0.87-0.88-1.31-1.32c-0.14-0.13-0.15-0.24-0.04-0.4c0.33-0.47,0.65-0.95,0.98-1.41c0.11-0.16,0.15-0.3,0.07-0.49
				c-0.2-0.46-0.37-0.93-0.57-1.4c-0.04-0.08-0.14-0.17-0.23-0.19c-0.6-0.13-1.2-0.25-1.8-0.35c-0.2-0.03-0.28-0.1-0.28-0.31
				c0.01-0.63,0.01-1.27,0-1.91c0-0.17,0.06-0.24,0.22-0.27c0.59-0.11,1.19-0.23,1.78-0.33c0.22-0.04,0.35-0.12,0.43-0.33
				c0.16-0.4,0.33-0.8,0.51-1.2c0.08-0.17,0.07-0.32-0.04-0.48c-0.35-0.49-0.68-1-1.03-1.49c-0.13-0.18-0.13-0.3,0.03-0.46
				c0.45-0.43,0.88-0.87,1.31-1.31c0.13-0.14,0.24-0.13,0.38-0.03c0.52,0.36,1.05,0.72,1.56,1.09c0.16,0.11,0.29,0.13,0.47,0.05
				c0.39-0.18,0.79-0.33,1.18-0.49c0.14-0.06,0.24-0.14,0.27-0.31c0.11-0.62,0.24-1.23,0.34-1.85c0.04-0.23,0.12-0.33,0.37-0.33
				c0.6,0.02,1.21,0.01,1.81,0c0.21,0,0.29,0.08,0.32,0.28c0.11,0.63,0.24,1.26,0.35,1.89c0.03,0.18,0.13,0.26,0.29,0.32
				c0.4,0.16,0.79,0.31,1.18,0.49c0.17,0.08,0.3,0.05,0.45-0.05c0.52-0.36,1.05-0.72,1.57-1.08c0.16-0.11,0.27-0.1,0.4,0.03
				c0.43,0.44,0.87,0.88,1.31,1.31c0.14,0.14,0.15,0.26,0.04,0.42c-0.35,0.5-0.69,1.01-1.04,1.51c-0.11,0.16-0.13,0.3-0.05,0.48
				c0.18,0.4,0.35,0.81,0.52,1.22c0.07,0.18,0.2,0.27,0.39,0.3c0.58,0.09,1.16,0.21,1.74,0.31c0.21,0.04,0.3,0.12,0.29,0.35
				c-0.02,0.61-0.01,1.22,0,1.84c0,0.2-0.07,0.28-0.27,0.31c-0.61,0.1-1.22,0.22-1.82,0.35c-0.08,0.02-0.18,0.1-0.21,0.18
				c-0.2,0.47-0.38,0.95-0.58,1.42c-0.07,0.17-0.04,0.31,0.06,0.45c0.32,0.46,0.63,0.94,0.96,1.39c0.13,0.18,0.14,0.31-0.03,0.48
				c-0.43,0.41-0.85,0.82-1.25,1.25c-0.18,0.19-0.32,0.18-0.51,0.04c-0.43-0.31-0.88-0.6-1.31-0.91c-0.17-0.12-0.32-0.16-0.51-0.03
				c-0.13,0.09-0.29,0.15-0.43,0.23c-0.16,0.09-0.26,0.06-0.34-0.12c-0.36-0.88-0.73-1.76-1.09-2.64c-0.1-0.25-0.19-0.51-0.31-0.75
				c-0.09-0.18-0.07-0.29,0.11-0.4c0.52-0.33,0.94-0.75,1.15-1.36C220.63,983.33,219.47,981.7,217.78,981.7z"/>
			<rect x="535.88" y="925.85" class="st1" width="43.16" height="7.34"/>
			<rect x="535.88" y="956.69" class="st1" width="43.16" height="7.34"/>
			<rect x="535.88" y="941.27" class="st1" width="43.16" height="7.34"/>
			<rect x="526.85" y="919.57" width="13.35" height="50.74"/>
			
				<ellipse transform="matrix(0.7071 -0.7071 0.7071 0.7071 -402.6851 643.9393)" class="st2" cx="575.96" cy="808.05" rx="17.98" ry="17.98"/>
			<circle class="st3" cx="575.96" cy="808.05" r="14.69"/>
			
				<ellipse transform="matrix(0.7071 -0.7071 0.7071 0.7071 -456.6374 666.287)" class="st4" cx="575.96" cy="884.35" rx="17.98" ry="17.98"/>
			<circle class="st5" cx="575.96" cy="884.35" r="14.69"/>
			
				<ellipse transform="matrix(0.7071 -0.7071 0.7071 0.7071 -469.9763 583.1661)" class="st2" cx="468.96" cy="858.89" rx="17.98" ry="17.98"/>
			<circle class="st3" cx="468.96" cy="858.89" r="14.69"/>
			
				<ellipse transform="matrix(0.7071 -0.7071 0.7071 0.7071 -482.2762 553.4717)" class="st4" cx="426.96" cy="858.89" rx="17.98" ry="17.98"/>
			<circle class="st5" cx="426.96" cy="858.89" r="14.69"/>
			
				<ellipse transform="matrix(0.7071 -0.7071 0.7071 0.7071 -381.1197 546.3605)" class="st4" cx="468.96" cy="733.23" rx="17.98" ry="17.98"/>
			<circle class="st5" cx="468.96" cy="733.23" r="14.69"/>
			
				<ellipse transform="matrix(0.7071 -0.7071 0.7071 0.7071 -393.4196 516.6661)" class="st6" cx="426.96" cy="733.23" rx="17.98" ry="17.98"/>
			<circle class="st7" cx="426.96" cy="733.23" r="14.69"/>
			
				<ellipse transform="matrix(0.7071 -0.7071 0.7071 0.7071 -369.4284 574.5859)" class="st8" cx="508.87" cy="733.23" rx="17.98" ry="17.98"/>
			<circle class="st9" cx="508.87" cy="733.23" r="14.69"/>
			
				<ellipse transform="matrix(0.7071 -0.7071 0.7071 0.7071 -357.3559 603.7316)" class="st10" cx="550.09" cy="733.23" rx="17.98" ry="17.98"/>
			<circle class="st11" cx="550.09" cy="733.23" r="14.69"/>
		</g>
		<g>
			<polygon class="st0" points="585.46,442.1 585.46,366.39 584.57,366.39 577.04,366.39 201.41,366.39 201.41,366.74 
				201.41,390.16 201.41,677.04 204.59,677.04 246.33,677.04 585.5,677.04 585.5,662.6 598.61,649.48 598.61,455.26 			"/>
			<rect x="289.12" y="368.05" width="157.4" height="15.2"/>
			<rect x="452.87" y="368.05" width="129.84" height="15.2"/>
			<rect x="346.09" y="660.65" width="125.79" height="15.2"/>
			<rect x="484.41" y="660.65" width="94.86" height="15.2"/>
			<text transform="matrix(1 0 0 1 230.5471 665.6309)" class="st1 st17 st18">DMX-FS1</text>
			<path id="Open_Gear_00000153689903931868088640000018140688282795267754_" class="st1" d="M217.78,658.74
				c-1.16-0.03-2.39,0.89-2.42,2.4c-0.01,0.94,0.46,1.65,1.25,2.15c0.21,0.13,0.23,0.24,0.14,0.47c-0.47,1.1-0.92,2.21-1.38,3.32
				c-0.1,0.25-0.13,0.25-0.38,0.13c-0.8-0.41-0.5-0.43-1.25,0.07c-0.34,0.23-0.68,0.46-1.01,0.7c-0.16,0.11-0.28,0.11-0.42-0.04
				c-0.43-0.45-0.87-0.88-1.31-1.32c-0.14-0.13-0.15-0.24-0.04-0.4c0.33-0.47,0.65-0.95,0.98-1.41c0.11-0.16,0.15-0.3,0.07-0.49
				c-0.2-0.46-0.37-0.93-0.57-1.4c-0.04-0.08-0.14-0.17-0.23-0.19c-0.6-0.13-1.2-0.25-1.8-0.35c-0.2-0.03-0.28-0.1-0.28-0.31
				c0.01-0.63,0.01-1.27,0-1.91c0-0.17,0.06-0.24,0.22-0.27c0.59-0.11,1.19-0.23,1.78-0.33c0.22-0.03,0.35-0.12,0.43-0.33
				c0.16-0.4,0.33-0.8,0.51-1.2c0.08-0.17,0.07-0.32-0.04-0.48c-0.35-0.49-0.68-1-1.03-1.49c-0.13-0.18-0.13-0.3,0.03-0.46
				c0.45-0.43,0.88-0.87,1.31-1.31c0.13-0.14,0.24-0.13,0.38-0.03c0.52,0.36,1.05,0.72,1.56,1.09c0.16,0.11,0.29,0.13,0.47,0.05
				c0.39-0.18,0.79-0.33,1.18-0.49c0.14-0.06,0.24-0.14,0.27-0.31c0.11-0.62,0.24-1.23,0.34-1.85c0.04-0.23,0.12-0.33,0.37-0.33
				c0.6,0.02,1.21,0.01,1.81,0c0.21,0,0.29,0.08,0.32,0.28c0.11,0.63,0.24,1.26,0.35,1.89c0.03,0.18,0.13,0.26,0.29,0.32
				c0.4,0.16,0.79,0.31,1.18,0.49c0.17,0.08,0.3,0.05,0.45-0.05c0.52-0.36,1.05-0.72,1.57-1.08c0.16-0.11,0.27-0.1,0.4,0.03
				c0.43,0.44,0.87,0.88,1.31,1.31c0.14,0.14,0.15,0.26,0.04,0.42c-0.35,0.5-0.69,1.01-1.04,1.51c-0.11,0.16-0.13,0.3-0.05,0.48
				c0.18,0.4,0.35,0.81,0.52,1.22c0.07,0.18,0.2,0.27,0.39,0.3c0.58,0.09,1.16,0.21,1.74,0.31c0.21,0.04,0.3,0.12,0.29,0.35
				c-0.02,0.61-0.01,1.22,0,1.84c0,0.2-0.07,0.28-0.27,0.31c-0.61,0.1-1.22,0.22-1.82,0.35c-0.08,0.02-0.18,0.1-0.21,0.18
				c-0.2,0.47-0.38,0.95-0.58,1.42c-0.07,0.17-0.04,0.31,0.06,0.45c0.32,0.46,0.63,0.94,0.96,1.39c0.13,0.18,0.14,0.31-0.03,0.48
				c-0.43,0.41-0.85,0.82-1.25,1.25c-0.18,0.19-0.32,0.18-0.51,0.04c-0.43-0.31-0.88-0.6-1.31-0.91c-0.17-0.12-0.32-0.16-0.51-0.03
				c-0.13,0.09-0.29,0.15-0.43,0.23c-0.16,0.09-0.26,0.06-0.34-0.12c-0.36-0.88-0.73-1.76-1.09-2.64c-0.1-0.25-0.19-0.51-0.31-0.75
				c-0.09-0.18-0.07-0.29,0.11-0.4c0.52-0.33,0.94-0.75,1.15-1.36C220.63,660.37,219.47,658.74,217.78,658.74z"/>
			<rect x="535.88" y="602.89" class="st1" width="43.16" height="7.34"/>
			<rect x="535.88" y="633.74" class="st1" width="43.16" height="7.34"/>
			<rect x="535.88" y="618.31" class="st1" width="43.16" height="7.34"/>
			<rect x="526.85" y="596.62" width="13.35" height="50.74"/>
			
				<ellipse transform="matrix(0.7071 -0.7071 0.7071 0.7071 -174.3196 549.3472)" class="st2" cx="575.96" cy="485.1" rx="17.98" ry="17.98"/>
			<circle class="st3" cx="575.96" cy="485.1" r="14.69"/>
			
				<ellipse transform="matrix(0.7071 -0.7071 0.7071 0.7071 -228.2718 571.6949)" class="st4" cx="575.96" cy="561.4" rx="17.98" ry="17.98"/>
			<circle class="st5" cx="575.96" cy="561.4" r="14.69"/>
			
				<ellipse transform="matrix(0.7071 -0.7071 0.7071 0.7071 -247.6267 474.0505)" class="st2" cx="448.42" cy="535.94" rx="17.98" ry="17.98"/>
			<circle class="st3" cx="448.42" cy="535.94" r="14.69"/>
			
				<ellipse transform="matrix(0.7071 -0.7071 0.7071 0.7071 -189.1503 513.5428)" class="st2" cx="525.33" cy="485.1" rx="17.98" ry="17.98"/>
			<circle class="st3" cx="525.33" cy="485.1" r="14.69"/>
			
				<ellipse transform="matrix(0.7071 -0.7071 0.7071 0.7071 -274.8723 408.2738)" class="st4" cx="355.39" cy="535.94" rx="17.98" ry="17.98"/>
			<circle class="st5" cx="355.39" cy="535.94" r="14.69"/>
			
				<ellipse transform="matrix(0.7071 -0.7071 0.7071 0.7071 -243.1025 535.8906)" class="st4" cx="525.33" cy="561.4" rx="17.98" ry="17.98"/>
			<circle class="st5" cx="525.33" cy="561.4" r="14.69"/>
			<path d="M451.05,645h-5.28c-19.54,0-35.52-15.99-35.52-35.52v-5.28c0-19.54,15.99-35.52,35.52-35.52h5.28
				c19.54,0,35.52,15.99,35.52,35.52v5.28C486.58,629.02,470.59,645,451.05,645z"/>
			<circle class="st3" cx="448.42" cy="606.84" r="36.33"/>
			<path d="M358.03,645h-5.28c-19.54,0-35.52-15.99-35.52-35.52v-5.28c0-19.54,15.99-35.52,35.52-35.52h5.28
				c19.54,0,35.52,15.99,35.52,35.52v5.28C393.55,629.02,377.57,645,358.03,645z"/>
			<circle class="st12" cx="355.39" cy="606.84" r="36.33"/>
			<path d="M358.57,468.4h-5.28c-19.54,0-35.52-15.99-35.52-35.52v-5.28c0-19.54,15.99-35.52,35.52-35.52h5.28
				c19.54,0,35.52,15.99,35.52,35.52v5.28C394.09,452.42,378.11,468.4,358.57,468.4z"/>
			<circle class="st13" cx="355.93" cy="430.24" r="36.33"/>
			<rect x="519.67" y="404.49" class="st1" width="43.16" height="7.34"/>
			<rect x="519.67" y="435.34" class="st1" width="43.16" height="7.34"/>
			<rect x="519.67" y="419.91" class="st1" width="43.16" height="7.34"/>
			<rect x="510.64" y="398.22" width="13.35" height="50.74"/>
			
				<rect x="235.06" y="629.69" transform="matrix(-1 -1.224647e-16 1.224647e-16 -1 513.281 1266.7321)" class="st1" width="43.16" height="7.34"/>
			
				<rect x="235.06" y="598.85" transform="matrix(-1 -1.224647e-16 1.224647e-16 -1 513.281 1205.048)" class="st1" width="43.16" height="7.34"/>
			
				<rect x="235.06" y="614.27" transform="matrix(-1 -1.224647e-16 1.224647e-16 -1 513.281 1235.89)" class="st1" width="43.16" height="7.34"/>
			
				<rect x="273.9" y="592.57" transform="matrix(-1 -1.224647e-16 1.224647e-16 -1 561.1613 1235.89)" width="13.35" height="50.74"/>
		</g>
		<g>
			<path class="st0" d="M585.46,75.71V0H201.41v310.66H585.5v-14.44l13.12-13.12V88.87L585.46,75.71z"/>
			<path d="M451.05,278.62h-5.28c-19.54,0-35.52-15.99-35.52-35.52v-5.28c0-19.54,15.99-35.52,35.52-35.52h5.28
				c19.54,0,35.52,15.99,35.52,35.52v5.28C486.58,262.63,470.59,278.62,451.05,278.62z"/>
			<circle class="st3" cx="448.42" cy="240.46" r="36.33"/>
			<path d="M358.03,278.62h-5.28c-19.54,0-35.52-15.99-35.52-35.52v-5.28c0-19.54,15.99-35.52,35.52-35.52h5.28
				c19.54,0,35.52,15.99,35.52,35.52v5.28C393.55,262.63,377.57,278.62,358.03,278.62z"/>
			<circle class="st12" cx="355.39" cy="240.46" r="36.33"/>
			<path d="M358.03,102.02h-5.28c-19.54,0-35.52-15.99-35.52-35.52v-5.28c0-19.54,15.99-35.52,35.52-35.52h5.28
				c19.54,0,35.52,15.99,35.52,35.52v5.28C393.55,86.03,377.57,102.02,358.03,102.02z"/>
			<circle class="st13" cx="355.39" cy="63.85" r="36.33"/>
			<rect x="289.12" y="1.67" width="157.4" height="15.2"/>
			<rect x="452.87" y="1.67" width="129.84" height="15.2"/>
			<rect x="346.09" y="294.26" width="125.79" height="15.2"/>
			<rect x="484.41" y="294.26" width="94.86" height="15.2"/>
			<text transform="matrix(1 0 0 1 230.5471 299.2422)" class="st1 st17 st18">DMX-TX1</text>
			<path id="Open_Gear_00000067235202319728037790000008456050617303321004_" class="st1" d="M217.78,292.36
				c-1.16-0.03-2.39,0.89-2.42,2.4c-0.01,0.94,0.46,1.65,1.25,2.15c0.21,0.13,0.23,0.24,0.14,0.47c-0.47,1.1-0.92,2.21-1.38,3.32
				c-0.1,0.25-0.13,0.25-0.38,0.13c-0.8-0.41-0.5-0.43-1.25,0.07c-0.34,0.23-0.68,0.46-1.01,0.7c-0.16,0.11-0.28,0.11-0.42-0.04
				c-0.43-0.45-0.87-0.88-1.31-1.32c-0.14-0.13-0.15-0.24-0.04-0.4c0.33-0.47,0.65-0.95,0.98-1.41c0.11-0.16,0.15-0.3,0.07-0.49
				c-0.2-0.46-0.37-0.93-0.57-1.4c-0.04-0.08-0.14-0.17-0.23-0.19c-0.6-0.13-1.2-0.25-1.8-0.35c-0.2-0.03-0.28-0.1-0.28-0.31
				c0.01-0.63,0.01-1.27,0-1.91c0-0.17,0.06-0.24,0.22-0.27c0.59-0.11,1.19-0.23,1.78-0.33c0.22-0.04,0.35-0.12,0.43-0.33
				c0.16-0.4,0.33-0.8,0.51-1.2c0.08-0.17,0.07-0.32-0.04-0.48c-0.35-0.49-0.68-1-1.03-1.49c-0.13-0.18-0.13-0.3,0.03-0.46
				c0.45-0.43,0.88-0.87,1.31-1.31c0.13-0.14,0.24-0.13,0.38-0.03c0.52,0.36,1.05,0.72,1.56,1.09c0.16,0.11,0.29,0.13,0.47,0.05
				c0.39-0.18,0.79-0.33,1.18-0.49c0.14-0.06,0.24-0.14,0.27-0.31c0.11-0.62,0.24-1.23,0.34-1.85c0.04-0.23,0.12-0.33,0.37-0.33
				c0.6,0.02,1.21,0.01,1.81,0c0.21,0,0.29,0.08,0.32,0.28c0.11,0.63,0.24,1.26,0.35,1.89c0.03,0.18,0.13,0.26,0.29,0.32
				c0.4,0.16,0.79,0.31,1.18,0.49c0.17,0.08,0.3,0.05,0.45-0.05c0.52-0.36,1.05-0.72,1.57-1.08c0.16-0.11,0.27-0.1,0.4,0.03
				c0.43,0.44,0.87,0.88,1.31,1.31c0.14,0.14,0.15,0.26,0.04,0.42c-0.35,0.5-0.69,1.01-1.04,1.51c-0.11,0.16-0.13,0.3-0.05,0.48
				c0.18,0.4,0.35,0.81,0.52,1.22c0.07,0.18,0.2,0.27,0.39,0.3c0.58,0.09,1.16,0.21,1.74,0.31c0.21,0.04,0.3,0.12,0.29,0.35
				c-0.02,0.61-0.01,1.22,0,1.84c0,0.2-0.07,0.28-0.27,0.31c-0.61,0.1-1.22,0.22-1.82,0.35c-0.08,0.02-0.18,0.1-0.21,0.18
				c-0.2,0.47-0.38,0.95-0.58,1.42c-0.07,0.17-0.04,0.31,0.06,0.45c0.32,0.46,0.63,0.94,0.96,1.39c0.13,0.18,0.14,0.31-0.03,0.48
				c-0.43,0.41-0.85,0.82-1.25,1.25c-0.18,0.19-0.32,0.18-0.51,0.04c-0.43-0.31-0.88-0.6-1.31-0.91c-0.17-0.12-0.32-0.16-0.51-0.03
				c-0.13,0.09-0.29,0.15-0.43,0.23c-0.16,0.09-0.26,0.06-0.34-0.12c-0.36-0.88-0.73-1.76-1.09-2.64c-0.1-0.25-0.19-0.51-0.31-0.75
				c-0.09-0.18-0.07-0.29,0.11-0.4c0.52-0.33,0.94-0.75,1.15-1.36C220.63,293.99,219.47,292.35,217.78,292.36z"/>
			<rect x="535.88" y="236.51" class="st1" width="43.16" height="7.34"/>
			<rect x="535.88" y="267.35" class="st1" width="43.16" height="7.34"/>
			<rect x="535.88" y="251.93" class="st1" width="43.16" height="7.34"/>
			<rect x="526.85" y="230.23" width="13.35" height="50.74"/>
			
				<ellipse transform="matrix(0.7071 -0.7071 0.7071 0.7071 84.7546 442.0352)" class="st2" cx="575.96" cy="118.71" rx="17.98" ry="17.98"/>
			<circle class="st3" cx="575.96" cy="118.71" r="14.69"/>
			
				<ellipse transform="matrix(0.7071 -0.7071 0.7071 0.7071 30.8023 464.3829)" class="st4" cx="575.96" cy="195.01" rx="17.98" ry="17.98"/>
			<circle class="st5" cx="575.96" cy="195.01" r="14.69"/>
			
				<ellipse transform="matrix(0.7071 -0.7071 0.7071 0.7071 17.4633 381.262)" class="st2" cx="468.96" cy="169.55" rx="17.98" ry="17.98"/>
			<circle class="st3" cx="468.96" cy="169.55" r="14.69"/>
			
				<ellipse transform="matrix(0.7071 -0.7071 0.7071 0.7071 5.1635 351.5675)" class="st4" cx="426.96" cy="169.55" rx="17.98" ry="17.98"/>
			<circle class="st5" cx="426.96" cy="169.55" r="14.69"/>
			
				<ellipse transform="matrix(0.7071 -0.7071 0.7071 0.7071 106.32 344.4564)" class="st4" cx="468.96" cy="43.89" rx="17.98" ry="17.98"/>
			<circle class="st5" cx="468.96" cy="43.89" r="14.69"/>
			
				<ellipse transform="matrix(0.7071 -0.7071 0.7071 0.7071 94.0201 314.7619)" class="st6" cx="426.96" cy="43.89" rx="17.98" ry="17.98"/>
			<circle class="st7" cx="426.96" cy="43.89" r="14.69"/>
			
				<ellipse transform="matrix(0.7071 -0.7071 0.7071 0.7071 118.0113 372.6818)" class="st8" cx="508.87" cy="43.89" rx="17.98" ry="17.98"/>
			<circle class="st9" cx="508.87" cy="43.89" r="14.69"/>
			
				<ellipse transform="matrix(0.7071 -0.7071 0.7071 0.7071 130.0838 401.8275)" class="st10" cx="550.09" cy="43.89" rx="17.98" ry="17.98"/>
			<circle class="st11" cx="550.09" cy="43.89" r="14.69"/>
			<path d="M384.37,187.07h-56.13c-6.05,0-11-4.95-11-11v-47.84c0-6.05,4.95-11,11-11h56.13c6.05,0,11,4.95,11,11v47.84
				C395.37,182.12,390.42,187.07,384.37,187.07z"/>
			<path class="st19" d="M356.72,184.4h-0.84c-3.13,0-5.68-2.56-5.68-5.68v-53.13c0-3.13,2.56-5.68,5.68-5.68h0.84
				c3.13,0,5.68,2.56,5.68,5.68v53.13C362.4,181.85,359.85,184.4,356.72,184.4z"/>
			<circle class="st19" cx="356.3" cy="152.16" r="26.95"/>
			<path class="st19" d="M379.59,174.47l-0.98,0.98c-3.63,3.63-9.57,3.63-13.2,0l-32.41-32.41c-3.63-3.63-3.63-9.57,0-13.2
				l0.98-0.98c3.63-3.63,9.57-3.63,13.2,0l32.41,32.41C383.22,164.9,383.22,170.84,379.59,174.47z"/>
			<path class="st19" d="M333.99,175.45l-0.98-0.98c-3.63-3.63-3.63-9.57,0-13.2l32.41-32.41c3.63-3.63,9.57-3.63,13.2,0l0.98,0.98
				c3.63,3.63,3.63,9.57,0,13.2l-32.41,32.41C343.55,179.08,337.62,179.08,333.99,175.45z"/>
			<path class="st19" d="M324.05,152.58v-0.84c0-3.13,2.56-5.68,5.68-5.68h53.13c3.13,0,5.68,2.56,5.68,5.68v0.84
				c0,3.13-2.56,5.68-5.68,5.68h-53.13C326.61,158.26,324.05,155.7,324.05,152.58z"/>
			<rect x="231.99" y="27.53" width="42.47" height="212.65"/>
			<rect x="217.73" y="118.71" width="71" height="111.52"/>
			
				<rect x="203.55" y="144.38" transform="matrix(-1.836970e-16 1 -1 -1.836970e-16 426.7668 -79.4358)" class="st20" width="99.09" height="58.58"/>
			<rect x="231.86" y="170.35" class="st1" width="42.47" height="6.62"/>
		</g>
		<g>
			<polyline class="st14" points="587.78,637.15 648.98,637.15 648.98,960.37 587.78,960.37 			"/>
			<polyline class="st15" points="583.77,621.73 635.59,621.73 635.59,944.94 583.77,944.94 			"/>
			<polyline class="st16" points="578.7,606.58 622.13,606.58 622.13,929.52 578.7,929.52 			"/>
			<rect x="576.16" y="919.57" width="13.35" height="50.74"/>
			<rect x="576.16" y="596.36" width="13.35" height="50.74"/>
		</g>
		<g>
			<polyline class="st14" points="582.71,271.02 648.98,271.02 648.98,353.6 177.87,353.6 177.87,602.52 233.51,602.52 			"/>
			<polyline class="st15" points="582.84,255.6 635.59,255.6 635.59,338.18 164.41,338.18 164.41,618.31 233.51,618.31 			"/>
			<polyline class="st16" points="579.05,240.18 622.13,240.18 622.13,322.76 151.02,322.76 151.02,633.37 235.9,633.37 			"/>
			<rect x="576.16" y="230.23" width="13.35" height="50.74"/>
			<rect x="226.83" y="592.57" width="13.35" height="50.74"/>
		</g>
	</g>
</g>
<g id="TX2-RX1">
</g>
<g id="TX1-RX1">
</g>
</svg>
